<mxfile host="drawio-plugin" modified="2023-10-11T03:59:44.540Z" agent="5.0 (Windows NT 10.0; Win64; x64) AppleWebKit/537.36 (KHTML, like Gecko) Chrome/111.0.0.0 Safari/537.36" etag="w7j0NH_CvgT--eulUUV3" version="20.5.3" type="embed"><diagram id="23iRSUPoRavnBvh4doch" name="Page-1"><mxGraphModel dx="723" dy="629" grid="1" gridSize="10" guides="1" tooltips="1" connect="1" arrows="1" fold="1" page="1" pageScale="1" pageWidth="827" pageHeight="1169" math="0" shadow="0"><root><mxCell id="0"/><mxCell id="1" parent="0"/><mxCell id="2" value="物品订单" style="rounded=1;whiteSpace=wrap;html=1;arcSize=12;" vertex="1" parent="1"><mxGeometry x="190" y="220" width="120" height="60" as="geometry"/></mxCell><mxCell id="7" style="edgeStyle=none;rounded=0;orthogonalLoop=1;jettySize=auto;html=1;exitX=0.5;exitY=1;exitDx=0;exitDy=0;entryX=0.5;entryY=0;entryDx=0;entryDy=0;" edge="1" parent="1" source="3" target="2"><mxGeometry relative="1" as="geometry"/></mxCell><mxCell id="3" value="卖家" style="ellipse;whiteSpace=wrap;html=1;" vertex="1" parent="1"><mxGeometry x="180" y="100" width="110" height="60" as="geometry"/></mxCell><mxCell id="8" style="edgeStyle=none;rounded=0;orthogonalLoop=1;jettySize=auto;html=1;exitX=0.5;exitY=1;exitDx=0;exitDy=0;entryX=1;entryY=0;entryDx=0;entryDy=0;" edge="1" parent="1" source="4" target="2"><mxGeometry relative="1" as="geometry"/></mxCell><mxCell id="4" value="买家" style="ellipse;whiteSpace=wrap;html=1;" vertex="1" parent="1"><mxGeometry x="320" y="100" width="120" height="60" as="geometry"/></mxCell><mxCell id="6" style="edgeStyle=none;rounded=0;orthogonalLoop=1;jettySize=auto;html=1;exitX=0.5;exitY=1;exitDx=0;exitDy=0;entryX=0;entryY=0;entryDx=0;entryDy=0;" edge="1" parent="1" source="5" target="2"><mxGeometry relative="1" as="geometry"/></mxCell><mxCell id="5" value="商品(SNAPSHOT)" style="ellipse;whiteSpace=wrap;html=1;" vertex="1" parent="1"><mxGeometry x="30" y="100" width="120" height="60" as="geometry"/></mxCell></root></mxGraphModel></diagram></mxfile>